<?xml version="1.0" encoding="UTF-8"?>
<svg version="1.1" xmlns="http://www.w3.org/2000/svg" width="40" height="40">
<path d="M0 0 C2.56439724 1.32056251 4.92841281 2.88052542 7.3125 4.5 C8.26092773 5.12455078 8.26092773 5.12455078 9.22851562 5.76171875 C13.76971726 8.76971726 13.76971726 8.76971726 15 10 C15.04080783 11.99958364 15.04254356 14.00045254 15 16 C14.34 16 13.68 16 13 16 C13 21.28 13 26.56 13 32 C10.03 32 7.06 32 4 32 C4 33.65 4 35.3 4 37 C2.700625 36.4740625 2.700625 36.4740625 1.375 35.9375 C-2.31179234 34.91339102 -4.32140541 35.12033608 -8 36 C-8.78375 36.185625 -9.5675 36.37125 -10.375 36.5625 C-10.91125 36.706875 -11.4475 36.85125 -12 37 C-12 35.35 -12 33.7 -12 32 C-14.97 32 -17.94 32 -21 32 C-21 26.72 -21 21.44 -21 16 C-21.66 16 -22.32 16 -23 16 C-23.28515625 13.2265625 -23.28515625 13.2265625 -23 10 C-21.05859375 8.0234375 -21.05859375 8.0234375 -18.4375 6.375 C-17.06658203 5.50488281 -17.06658203 5.50488281 -15.66796875 4.6171875 C-14.78753906 4.08351563 -13.90710937 3.54984375 -13 3 C-12.33613281 2.54882812 -11.67226562 2.09765625 -10.98828125 1.6328125 C-6.85767782 -1.05904142 -4.6904473 -1.26129675 0 0 Z " fill="#DAF0FD" transform="translate(24,2)"/>
<path d="M0 0 C5.28 0 10.56 0 16 0 C16 6.6 16 13.2 16 20 C14.02 19.34 12.04 18.68 10 18 C6.52593253 18.34740675 3.39290951 19.15177262 0 20 C0 13.4 0 6.8 0 0 Z " fill="#EA7B7B" transform="translate(12,19)"/>
<path d="M0 0 C2.56439724 1.32056251 4.92841281 2.88052542 7.3125 4.5 C8.26092773 5.12455078 8.26092773 5.12455078 9.22851562 5.76171875 C13.76971726 8.76971726 13.76971726 8.76971726 15 10 C15.04080783 11.99958364 15.04254356 14.00045254 15 16 C14.34 16 13.68 16 13 16 C13 21.28 13 26.56 13 32 C10.69 32 8.38 32 6 32 C6 31.67 6 31.34 6 31 C7.98 31 9.96 31 12 31 C12.98660442 21.24160683 12.98660442 21.24160683 9.7734375 12.39355469 C5.57796853 8.70638292 0.6243417 5.85941027 -5.0625 6.1640625 C-10.62455682 7.74688186 -15.14053128 9.55834024 -19 14 C-20.63120176 19.49153344 -20.27385099 25.3382901 -20 31 C-18.02 31 -16.04 31 -14 31 C-14 31.33 -14 31.66 -14 32 C-16.31 32 -18.62 32 -21 32 C-21 26.72 -21 21.44 -21 16 C-21.66 16 -22.32 16 -23 16 C-23.28515625 13.2265625 -23.28515625 13.2265625 -23 10 C-21.05859375 8.0234375 -21.05859375 8.0234375 -18.4375 6.375 C-17.06658203 5.50488281 -17.06658203 5.50488281 -15.66796875 4.6171875 C-14.78753906 4.08351563 -13.90710937 3.54984375 -13 3 C-12.33613281 2.54882812 -11.67226562 2.09765625 -10.98828125 1.6328125 C-6.85767782 -1.05904142 -4.6904473 -1.26129675 0 0 Z " fill="#CB676D" transform="translate(24,2)"/>
<path d="M0 0 C-1.24976756 3.65316671 -1.67098753 4.78065836 -5 7 C-5.38384509 9.93597539 -5.603843 12.68027373 -5.6875 15.625 C-5.72166016 16.42679688 -5.75582031 17.22859375 -5.79101562 18.0546875 C-5.87356878 20.03596318 -5.93845916 22.01796037 -6 24 C-4.02 24 -2.04 24 0 24 C0 24.33 0 24.66 0 25 C-2.31 25 -4.62 25 -7 25 C-7.34242942 21.58643466 -7.61496917 18.17075035 -7.875 14.75 C-7.97296875 13.78191406 -8.0709375 12.81382813 -8.171875 11.81640625 C-8.3597494 9.09222746 -8.4610503 6.69308286 -8 4 C-3.70760234 0 -3.70760234 0 0 0 Z " fill="#B6899E" transform="translate(10,9)"/>
<path d="M0 0 C1.65 0.33 3.3 0.66 5 1 C2.47211993 3.79872437 0.79588866 5.45773019 -3 6 C-2.01 4.02 -1.02 2.04 0 0 Z " fill="#DD7273" transform="translate(11,7)"/>
<path d="M0 0 C0.66 0.33 1.32 0.66 2 1 C-0.52788007 3.79872437 -2.20411134 5.45773019 -6 6 C-5 3 -5 3 -2.5625 1.25 C-1.716875 0.8375 -0.87125 0.425 0 0 Z " fill="#F48A8A" transform="translate(18,3)"/>
</svg>
